<mxfile host="app.diagrams.net" modified="2023-02-13T07:28:57.606Z" agent="5.0 (Macintosh; Intel Mac OS X 10_15_7) AppleWebKit/537.36 (KHTML, like Gecko) Chrome/109.0.0.0 Safari/537.36" etag="3vqz2UOQv3ZvnjpHHGp3" version="20.8.20" type="github">
  <diagram name="第 1 页" id="jpnvuy32GK8fpqJJxuUJ">
    <mxGraphModel dx="1550" dy="1119" grid="0" gridSize="10" guides="1" tooltips="1" connect="1" arrows="1" fold="1" page="0" pageScale="1" pageWidth="827" pageHeight="1169" math="0" shadow="0">
      <root>
        <mxCell id="0" />
        <mxCell id="1" parent="0" />
        <mxCell id="yl57tY-dSV3nHuKEagw1-77" value="" style="rounded=0;whiteSpace=wrap;html=1;dashed=1;strokeWidth=2;strokeColor=#e90707;" vertex="1" parent="1">
          <mxGeometry x="1239" y="630" width="170" height="239" as="geometry" />
        </mxCell>
        <mxCell id="yl57tY-dSV3nHuKEagw1-75" value="" style="rounded=0;whiteSpace=wrap;html=1;dashed=1;strokeWidth=2;strokeColor=#e90707;" vertex="1" parent="1">
          <mxGeometry x="52" y="630" width="169" height="239" as="geometry" />
        </mxCell>
        <mxCell id="yl57tY-dSV3nHuKEagw1-54" style="edgeStyle=orthogonalEdgeStyle;rounded=0;orthogonalLoop=1;jettySize=auto;html=1;" edge="1" parent="1" source="yl57tY-dSV3nHuKEagw1-48" target="yl57tY-dSV3nHuKEagw1-50">
          <mxGeometry relative="1" as="geometry" />
        </mxCell>
        <mxCell id="yl57tY-dSV3nHuKEagw1-55" value="诺曼底首页浮层后链路场景" style="edgeLabel;html=1;align=center;verticalAlign=middle;resizable=0;points=[];" vertex="1" connectable="0" parent="yl57tY-dSV3nHuKEagw1-54">
          <mxGeometry x="0.7571" y="1" relative="1" as="geometry">
            <mxPoint as="offset" />
          </mxGeometry>
        </mxCell>
        <mxCell id="yl57tY-dSV3nHuKEagw1-22" style="edgeStyle=orthogonalEdgeStyle;rounded=0;orthogonalLoop=1;jettySize=auto;html=1;" edge="1" parent="1" source="yl57tY-dSV3nHuKEagw1-16" target="yl57tY-dSV3nHuKEagw1-21">
          <mxGeometry relative="1" as="geometry" />
        </mxCell>
        <mxCell id="yl57tY-dSV3nHuKEagw1-24" value="诺曼底首页弹窗后链路511场景" style="edgeLabel;html=1;align=center;verticalAlign=middle;resizable=0;points=[];" vertex="1" connectable="0" parent="yl57tY-dSV3nHuKEagw1-22">
          <mxGeometry x="0.6645" y="-3" relative="1" as="geometry">
            <mxPoint x="3" y="19" as="offset" />
          </mxGeometry>
        </mxCell>
        <mxCell id="yl57tY-dSV3nHuKEagw1-14" style="edgeStyle=orthogonalEdgeStyle;rounded=0;orthogonalLoop=1;jettySize=auto;html=1;" edge="1" parent="1" source="yl57tY-dSV3nHuKEagw1-8" target="yl57tY-dSV3nHuKEagw1-11">
          <mxGeometry relative="1" as="geometry" />
        </mxCell>
        <mxCell id="yl57tY-dSV3nHuKEagw1-15" value="诺曼底首页弹窗前链路534场景" style="edgeLabel;html=1;align=center;verticalAlign=middle;resizable=0;points=[];" vertex="1" connectable="0" parent="yl57tY-dSV3nHuKEagw1-14">
          <mxGeometry x="0.6968" y="-4" relative="1" as="geometry">
            <mxPoint y="14" as="offset" />
          </mxGeometry>
        </mxCell>
        <mxCell id="yl57tY-dSV3nHuKEagw1-7" value="" style="rounded=0;whiteSpace=wrap;html=1;" vertex="1" parent="1">
          <mxGeometry x="81" y="687" width="119" height="112" as="geometry" />
        </mxCell>
        <mxCell id="yl57tY-dSV3nHuKEagw1-3" style="edgeStyle=orthogonalEdgeStyle;rounded=0;orthogonalLoop=1;jettySize=auto;html=1;" edge="1" parent="1" source="yl57tY-dSV3nHuKEagw1-1">
          <mxGeometry relative="1" as="geometry">
            <mxPoint x="141" y="689" as="targetPoint" />
          </mxGeometry>
        </mxCell>
        <mxCell id="yl57tY-dSV3nHuKEagw1-5" value="诺曼底首页浮层前链路场景" style="edgeLabel;html=1;align=center;verticalAlign=middle;resizable=0;points=[];" vertex="1" connectable="0" parent="yl57tY-dSV3nHuKEagw1-3">
          <mxGeometry x="0.6533" y="2" relative="1" as="geometry">
            <mxPoint x="-2" y="12" as="offset" />
          </mxGeometry>
        </mxCell>
        <mxCell id="yl57tY-dSV3nHuKEagw1-10" value="用户&lt;br&gt;点击&lt;br&gt;浮层" style="edgeStyle=orthogonalEdgeStyle;rounded=0;orthogonalLoop=1;jettySize=auto;html=1;" edge="1" parent="1" source="yl57tY-dSV3nHuKEagw1-1" target="yl57tY-dSV3nHuKEagw1-8">
          <mxGeometry relative="1" as="geometry">
            <mxPoint as="offset" />
          </mxGeometry>
        </mxCell>
        <mxCell id="yl57tY-dSV3nHuKEagw1-1" value="未登录&lt;br&gt;首页展示浮层" style="rounded=0;whiteSpace=wrap;html=1;" vertex="1" parent="1">
          <mxGeometry x="81" y="339" width="120" height="60" as="geometry" />
        </mxCell>
        <mxCell id="yl57tY-dSV3nHuKEagw1-2" value="千目" style="rounded=0;whiteSpace=wrap;html=1;fillColor=#f5f5f5;strokeColor=#666666;fontColor=#333333;" vertex="1" parent="1">
          <mxGeometry x="75" y="549" width="1316" height="50" as="geometry" />
        </mxCell>
        <mxCell id="yl57tY-dSV3nHuKEagw1-6" value="计划2-浮层策略" style="rounded=0;whiteSpace=wrap;html=1;fillColor=#d5e8d4;strokeColor=#82b366;" vertex="1" parent="1">
          <mxGeometry x="91" y="749.5" width="100" height="30" as="geometry" />
        </mxCell>
        <mxCell id="yl57tY-dSV3nHuKEagw1-17" style="edgeStyle=orthogonalEdgeStyle;rounded=0;orthogonalLoop=1;jettySize=auto;html=1;" edge="1" parent="1" source="yl57tY-dSV3nHuKEagw1-8" target="yl57tY-dSV3nHuKEagw1-16">
          <mxGeometry relative="1" as="geometry" />
        </mxCell>
        <mxCell id="yl57tY-dSV3nHuKEagw1-18" value="登录成功" style="edgeLabel;html=1;align=center;verticalAlign=middle;resizable=0;points=[];" vertex="1" connectable="0" parent="yl57tY-dSV3nHuKEagw1-17">
          <mxGeometry x="-0.1333" y="3" relative="1" as="geometry">
            <mxPoint y="3" as="offset" />
          </mxGeometry>
        </mxCell>
        <mxCell id="yl57tY-dSV3nHuKEagw1-8" value="展示诺曼底弹窗" style="rounded=0;whiteSpace=wrap;html=1;" vertex="1" parent="1">
          <mxGeometry x="251" y="339" width="120" height="60" as="geometry" />
        </mxCell>
        <mxCell id="yl57tY-dSV3nHuKEagw1-11" value="" style="rounded=0;whiteSpace=wrap;html=1;" vertex="1" parent="1">
          <mxGeometry x="251" y="689" width="120" height="110" as="geometry" />
        </mxCell>
        <mxCell id="yl57tY-dSV3nHuKEagw1-12" value="计划1-弹窗策略" style="rounded=0;whiteSpace=wrap;html=1;fillColor=#d5e8d4;strokeColor=#82b366;" vertex="1" parent="1">
          <mxGeometry x="261" y="709" width="100" height="30" as="geometry" />
        </mxCell>
        <mxCell id="yl57tY-dSV3nHuKEagw1-32" style="edgeStyle=orthogonalEdgeStyle;rounded=0;orthogonalLoop=1;jettySize=auto;html=1;" edge="1" parent="1" source="yl57tY-dSV3nHuKEagw1-16">
          <mxGeometry relative="1" as="geometry">
            <mxPoint x="641" y="369" as="targetPoint" />
          </mxGeometry>
        </mxCell>
        <mxCell id="yl57tY-dSV3nHuKEagw1-16" value="调用后链路校验" style="rounded=0;whiteSpace=wrap;html=1;" vertex="1" parent="1">
          <mxGeometry x="471" y="339" width="120" height="60" as="geometry" />
        </mxCell>
        <mxCell id="yl57tY-dSV3nHuKEagw1-21" value="" style="rounded=0;whiteSpace=wrap;html=1;" vertex="1" parent="1">
          <mxGeometry x="471" y="689" width="120" height="110" as="geometry" />
        </mxCell>
        <mxCell id="yl57tY-dSV3nHuKEagw1-23" value="计划1-弹窗策略" style="rounded=0;whiteSpace=wrap;html=1;fillColor=#d5e8d4;strokeColor=#82b366;" vertex="1" parent="1">
          <mxGeometry x="481" y="709" width="100" height="30" as="geometry" />
        </mxCell>
        <mxCell id="yl57tY-dSV3nHuKEagw1-39" style="edgeStyle=orthogonalEdgeStyle;rounded=0;orthogonalLoop=1;jettySize=auto;html=1;" edge="1" parent="1" source="yl57tY-dSV3nHuKEagw1-25">
          <mxGeometry relative="1" as="geometry">
            <mxPoint x="961" y="369" as="targetPoint" />
          </mxGeometry>
        </mxCell>
        <mxCell id="yl57tY-dSV3nHuKEagw1-25" value="权益领取" style="rounded=0;whiteSpace=wrap;html=1;" vertex="1" parent="1">
          <mxGeometry x="781" y="339" width="120" height="60" as="geometry" />
        </mxCell>
        <mxCell id="yl57tY-dSV3nHuKEagw1-34" value="Y" style="edgeStyle=orthogonalEdgeStyle;rounded=0;orthogonalLoop=1;jettySize=auto;html=1;" edge="1" parent="1" source="yl57tY-dSV3nHuKEagw1-33">
          <mxGeometry relative="1" as="geometry">
            <mxPoint x="781" y="369" as="targetPoint" />
          </mxGeometry>
        </mxCell>
        <mxCell id="yl57tY-dSV3nHuKEagw1-35" style="edgeStyle=orthogonalEdgeStyle;rounded=0;orthogonalLoop=1;jettySize=auto;html=1;entryX=0;entryY=0.5;entryDx=0;entryDy=0;exitX=0.5;exitY=0;exitDx=0;exitDy=0;" edge="1" parent="1" source="yl57tY-dSV3nHuKEagw1-33" target="yl57tY-dSV3nHuKEagw1-36">
          <mxGeometry relative="1" as="geometry">
            <mxPoint x="721" y="229" as="targetPoint" />
          </mxGeometry>
        </mxCell>
        <mxCell id="yl57tY-dSV3nHuKEagw1-38" value="N" style="edgeLabel;html=1;align=center;verticalAlign=middle;resizable=0;points=[];" vertex="1" connectable="0" parent="yl57tY-dSV3nHuKEagw1-35">
          <mxGeometry x="0.2933" y="2" relative="1" as="geometry">
            <mxPoint as="offset" />
          </mxGeometry>
        </mxCell>
        <mxCell id="yl57tY-dSV3nHuKEagw1-33" value="是否&lt;br&gt;校验&lt;br&gt;通过" style="rhombus;whiteSpace=wrap;html=1;" vertex="1" parent="1">
          <mxGeometry x="641" y="329" width="80" height="80" as="geometry" />
        </mxCell>
        <mxCell id="yl57tY-dSV3nHuKEagw1-36" value="展示兜底素材" style="rounded=0;whiteSpace=wrap;html=1;" vertex="1" parent="1">
          <mxGeometry x="781" y="249" width="120" height="60" as="geometry" />
        </mxCell>
        <mxCell id="yl57tY-dSV3nHuKEagw1-41" style="edgeStyle=orthogonalEdgeStyle;rounded=0;orthogonalLoop=1;jettySize=auto;html=1;" edge="1" parent="1" source="yl57tY-dSV3nHuKEagw1-40">
          <mxGeometry relative="1" as="geometry">
            <mxPoint x="1081" y="369" as="targetPoint" />
          </mxGeometry>
        </mxCell>
        <mxCell id="yl57tY-dSV3nHuKEagw1-73" value="默认" style="edgeLabel;html=1;align=center;verticalAlign=middle;resizable=0;points=[];" vertex="1" connectable="0" parent="yl57tY-dSV3nHuKEagw1-41">
          <mxGeometry x="-0.3333" y="1" relative="1" as="geometry">
            <mxPoint x="7" y="1" as="offset" />
          </mxGeometry>
        </mxCell>
        <mxCell id="yl57tY-dSV3nHuKEagw1-45" style="edgeStyle=orthogonalEdgeStyle;rounded=0;orthogonalLoop=1;jettySize=auto;html=1;entryX=0;entryY=0.5;entryDx=0;entryDy=0;" edge="1" parent="1" source="yl57tY-dSV3nHuKEagw1-40" target="yl57tY-dSV3nHuKEagw1-43">
          <mxGeometry relative="1" as="geometry">
            <mxPoint x="1021" y="269" as="targetPoint" />
            <Array as="points">
              <mxPoint x="981" y="269" />
            </Array>
          </mxGeometry>
        </mxCell>
        <mxCell id="yl57tY-dSV3nHuKEagw1-72" value="新人" style="edgeLabel;html=1;align=center;verticalAlign=middle;resizable=0;points=[];" vertex="1" connectable="0" parent="yl57tY-dSV3nHuKEagw1-45">
          <mxGeometry x="0.475" y="-3" relative="1" as="geometry">
            <mxPoint x="-10" y="-3" as="offset" />
          </mxGeometry>
        </mxCell>
        <mxCell id="yl57tY-dSV3nHuKEagw1-40" value="人群&lt;br&gt;分流" style="rhombus;whiteSpace=wrap;html=1;" vertex="1" parent="1">
          <mxGeometry x="941" y="329" width="80" height="80" as="geometry" />
        </mxCell>
        <mxCell id="yl57tY-dSV3nHuKEagw1-43" value="新人频道&lt;br&gt;展示权益领取成功&lt;br&gt;toast" style="rounded=0;whiteSpace=wrap;html=1;" vertex="1" parent="1">
          <mxGeometry x="1081" y="239" width="120" height="60" as="geometry" />
        </mxCell>
        <mxCell id="yl57tY-dSV3nHuKEagw1-47" style="edgeStyle=orthogonalEdgeStyle;rounded=0;orthogonalLoop=1;jettySize=auto;html=1;" edge="1" parent="1" source="yl57tY-dSV3nHuKEagw1-46">
          <mxGeometry relative="1" as="geometry">
            <mxPoint x="1261" y="369" as="targetPoint" />
          </mxGeometry>
        </mxCell>
        <mxCell id="yl57tY-dSV3nHuKEagw1-46" value="展示权益领取成功弹窗" style="rounded=0;whiteSpace=wrap;html=1;" vertex="1" parent="1">
          <mxGeometry x="1081" y="339" width="120" height="60" as="geometry" />
        </mxCell>
        <mxCell id="yl57tY-dSV3nHuKEagw1-48" value="进入首页&lt;br&gt;展示浮层" style="rounded=0;whiteSpace=wrap;html=1;" vertex="1" parent="1">
          <mxGeometry x="1261" y="339" width="120" height="60" as="geometry" />
        </mxCell>
        <mxCell id="yl57tY-dSV3nHuKEagw1-50" value="" style="rounded=0;whiteSpace=wrap;html=1;" vertex="1" parent="1">
          <mxGeometry x="1261" y="679" width="120" height="120" as="geometry" />
        </mxCell>
        <mxCell id="yl57tY-dSV3nHuKEagw1-52" value="计划1-配置浮层策略策略" style="rounded=0;whiteSpace=wrap;html=1;fillColor=#d5e8d4;strokeColor=#82b366;" vertex="1" parent="1">
          <mxGeometry x="1271" y="709" width="100" height="30" as="geometry" />
        </mxCell>
        <mxCell id="yl57tY-dSV3nHuKEagw1-59" value="" style="endArrow=none;html=1;rounded=0;startArrow=none;" edge="1" parent="1" source="yl57tY-dSV3nHuKEagw1-67">
          <mxGeometry width="50" height="50" relative="1" as="geometry">
            <mxPoint x="141" y="859" as="sourcePoint" />
            <mxPoint x="1321" y="859" as="targetPoint" />
          </mxGeometry>
        </mxCell>
        <mxCell id="yl57tY-dSV3nHuKEagw1-60" value="" style="endArrow=classic;html=1;rounded=0;entryX=0.5;entryY=1;entryDx=0;entryDy=0;" edge="1" parent="1" target="yl57tY-dSV3nHuKEagw1-7">
          <mxGeometry width="50" height="50" relative="1" as="geometry">
            <mxPoint x="141" y="859" as="sourcePoint" />
            <mxPoint x="191" y="809" as="targetPoint" />
          </mxGeometry>
        </mxCell>
        <mxCell id="yl57tY-dSV3nHuKEagw1-61" value="" style="endArrow=classic;html=1;rounded=0;" edge="1" parent="1" target="yl57tY-dSV3nHuKEagw1-11">
          <mxGeometry width="50" height="50" relative="1" as="geometry">
            <mxPoint x="311" y="859" as="sourcePoint" />
            <mxPoint x="361" y="809" as="targetPoint" />
          </mxGeometry>
        </mxCell>
        <mxCell id="yl57tY-dSV3nHuKEagw1-64" value="" style="endArrow=classic;html=1;rounded=0;entryX=0.5;entryY=1;entryDx=0;entryDy=0;" edge="1" parent="1" target="yl57tY-dSV3nHuKEagw1-21">
          <mxGeometry width="50" height="50" relative="1" as="geometry">
            <mxPoint x="531" y="859" as="sourcePoint" />
            <mxPoint x="591" y="809" as="targetPoint" />
          </mxGeometry>
        </mxCell>
        <mxCell id="yl57tY-dSV3nHuKEagw1-65" value="" style="endArrow=classic;html=1;rounded=0;entryX=0.5;entryY=1;entryDx=0;entryDy=0;" edge="1" parent="1" target="yl57tY-dSV3nHuKEagw1-50">
          <mxGeometry width="50" height="50" relative="1" as="geometry">
            <mxPoint x="1321" y="859" as="sourcePoint" />
            <mxPoint x="1381" y="809" as="targetPoint" />
          </mxGeometry>
        </mxCell>
        <mxCell id="yl57tY-dSV3nHuKEagw1-66" value="" style="endArrow=none;html=1;rounded=0;" edge="1" parent="1" target="yl57tY-dSV3nHuKEagw1-67">
          <mxGeometry width="50" height="50" relative="1" as="geometry">
            <mxPoint x="141" y="859" as="sourcePoint" />
            <mxPoint x="1321" y="859" as="targetPoint" />
          </mxGeometry>
        </mxCell>
        <mxCell id="yl57tY-dSV3nHuKEagw1-67" value="权益配置保持一致" style="text;html=1;strokeColor=none;fillColor=none;align=center;verticalAlign=middle;whiteSpace=wrap;rounded=0;" vertex="1" parent="1">
          <mxGeometry x="641" y="844" width="130" height="35" as="geometry" />
        </mxCell>
        <mxCell id="yl57tY-dSV3nHuKEagw1-69" value="" style="endArrow=classic;startArrow=classic;html=1;rounded=0;dashed=1;" edge="1" parent="1">
          <mxGeometry width="50" height="50" relative="1" as="geometry">
            <mxPoint x="201" y="724" as="sourcePoint" />
            <mxPoint x="253" y="724" as="targetPoint" />
          </mxGeometry>
        </mxCell>
        <mxCell id="yl57tY-dSV3nHuKEagw1-70" value="频控" style="text;html=1;strokeColor=#b85450;fillColor=#f8cecc;align=center;verticalAlign=middle;whiteSpace=wrap;rounded=0;" vertex="1" parent="1">
          <mxGeometry x="213" y="728.5" width="30" height="21" as="geometry" />
        </mxCell>
        <mxCell id="yl57tY-dSV3nHuKEagw1-74" value="计划1-弹窗策略" style="rounded=0;whiteSpace=wrap;html=1;fillColor=#d5e8d4;strokeColor=#82b366;" vertex="1" parent="1">
          <mxGeometry x="90.5" y="707" width="100" height="30" as="geometry" />
        </mxCell>
      </root>
    </mxGraphModel>
  </diagram>
</mxfile>
